# xmcd CD database file
#
# Track frame offsets:
#	150
#	11765
#	25392
#	85975
#	98670
#	115315
#	157680
#	225927
#	260895
#	324200
#
# Disc length: 4637 seconds
#
# Revision: 5
# Processed by: cddbd v1.5PL3 Copyright (c) Steve Scherf et al.
# Submitted via: CDex 1.50
#
DISCID=6e121b0a
DTITLE=Miles Davis - Ken Burns Jazz
DYEAR=2000
DGENRE=Jazz
TTITLE0=Donna Lee
TTITLE1=Boplicity
TTITLE2=Walkin
TTITLE3=Generique
TTITLE4=I wants to stay here
TTITLE5=So what
TTITLE6=My funny valentine
TTITLE7=Gingerbread boy
TTITLE8=Miles runs the voodoo down
TTITLE9=Tutu
EXTD=YEAR: 2000
EXTT0=\t
EXTT1=
EXTT2=
EXTT3=
EXTT4=
EXTT5=
EXTT6=
EXTT7=
EXTT8=
EXTT9=
PLAYORDER=
